<svg width="32" height="32" viewBox="0 0 32 32" fill="none" xmlns="http://www.w3.org/2000/svg">
<path d="M16.0534 3.33333L12.7067 6.66667H19.3734L16.0534 3.33333ZM5.33335 9.33333V26.6667H26.6667V9.33333H5.33335ZM16 0L22.6667 6.66667H26.6667C27.3739 6.66667 28.0522 6.94762 28.5523 7.44772C29.0524 7.94781 29.3334 8.62609 29.3334 9.33333V26.6667C29.3334 27.3739 29.0524 28.0522 28.5523 28.5523C28.0522 29.0524 27.3739 29.3333 26.6667 29.3333H5.33335C4.62611 29.3333 3.94783 29.0524 3.44774 28.5523C2.94764 28.0522 2.66669 27.3739 2.66669 26.6667V9.33333C2.66669 8.62609 2.94764 7.94781 3.44774 7.44772C3.94783 6.94762 4.62611 6.66667 5.33335 6.66667H9.33335L16 0ZM9.33335 24V18.6667H16V24H9.33335ZM18.6667 22.6667V13.3333H24V22.6667H18.6667ZM8.00002 16V12H14.6667V16H8.00002Z" fill="#363B43"/>
</svg>
