<svg width="24" height="25" viewBox="0 0 24 25" fill="none" xmlns="http://www.w3.org/2000/svg">
<path d="M19 19.5H5V8.5H19M19 3.5H18V1.5H16V3.5H8V1.5H6V3.5H5C3.89 3.5 3 4.4 3 5.5V19.5C3 20.0304 3.21071 20.5391 3.58579 20.9142C3.96086 21.2893 4.46957 21.5 5 21.5H19C19.5304 21.5 20.0391 21.2893 20.4142 20.9142C20.7893 20.5391 21 20.0304 21 19.5V5.5C21 4.96957 20.7893 4.46086 20.4142 4.08579C20.0391 3.71071 19.5304 3.5 19 3.5ZM16.53 11.56L15.47 10.5L10.59 15.38L8.47 13.26L7.41 14.32L10.59 17.5L16.53 11.56Z" fill="#000"/>
</svg>
