<svg width="32" height="32" viewBox="0 0 32 32" fill="none" xmlns="http://www.w3.org/2000/svg">
<path d="M22.6667 5.33341V13.3334L20 10.6667L17.3333 13.3334V5.33341H12V26.6667H25.3333V5.33341H22.6667ZM4 9.33341V6.66675H6.66667V5.33341C6.66667 3.85341 7.86667 2.66675 9.33333 2.66675H25.3333C26.7333 2.66675 28 3.93341 28 5.33341V26.6667C28 28.0667 26.7333 29.3334 25.3333 29.3334H9.33333C7.93333 29.3334 6.66667 28.0667 6.66667 26.6667V25.3334H4V22.6667H6.66667V17.3334H4V14.6667H6.66667V9.33341H4ZM6.66667 6.66675V9.33341H9.33333V6.66675H6.66667ZM6.66667 25.3334H9.33333V22.6667H6.66667V25.3334ZM6.66667 17.3334H9.33333V14.6667H6.66667V17.3334Z" fill="#363B43"/>
</svg>
