<svg width="69" height="69" viewBox="0 0 69 69" fill="none" xmlns="http://www.w3.org/2000/svg">
<rect width="69" height="69" rx="4" fill="#0094DA" fill-opacity="0.2"/>
<path d="M36.0833 14.1667V18.3334C45.2292 19.4584 51.7083 27.7709 50.5833 36.9167C49.625 44.5001 43.6667 50.4792 36.0833 51.4167V55.5834C47.5417 54.3334 55.7708 44.0417 54.5208 32.6042C53.4375 22.8959 45.7917 15.2084 36.0833 14.1667ZM31.9167 14.1667C27.8333 14.5417 23.9792 16.1459 20.8125 18.7501L23.7917 21.9584C26.125 20.0834 28.9375 18.8751 31.9167 18.4584V14.1667ZM17.875 21.8126C15.25 24.9792 13.6667 28.8334 13.2708 32.9167H17.4375C17.8333 29.9584 19 27.1459 20.8542 24.7917L17.875 21.8126ZM13.2917 37.0834C13.7083 41.1667 15.3125 45.0209 17.8958 48.1876L20.8542 45.2084C19.0208 42.8542 17.8333 40.0417 17.4583 37.0834H13.2917ZM23.7083 48.2709L20.8125 51.1251C23.9583 53.7501 27.8333 55.3959 31.9167 55.8334V51.6668C28.9583 51.2918 26.1458 50.1043 23.7917 48.2709H23.7083Z" fill="#0094DA"/>
</svg>
